<?xml version="1.0" encoding="UTF-8" standalone="no"?>
<svg
   width="96"
   height="96"
   viewBox="0 0 96 96"
   version="1.2"
   id="svg215"
   sodipodi:docname="koreader-outline.svg"
   inkscape:export-filename="koreader.png"
   inkscape:export-xdpi="96"
   inkscape:export-ydpi="96"
   inkscape:version="1.4.2 (ebf0e940d0, 2025-05-08)"
   xmlns:inkscape="http://www.inkscape.org/namespaces/inkscape"
   xmlns:sodipodi="http://sodipodi.sourceforge.net/DTD/sodipodi-0.dtd"
   xmlns="http://www.w3.org/2000/svg"
   xmlns:svg="http://www.w3.org/2000/svg"
   xmlns:rdf="http://www.w3.org/1999/02/22-rdf-syntax-ns#"
   xmlns:cc="http://creativecommons.org/ns#"
   xmlns:dc="http://purl.org/dc/elements/1.1/">
  <sodipodi:namedview
     id="namedview1"
     pagecolor="#ffffff"
     bordercolor="#000000"
     borderopacity="0.25"
     inkscape:showpageshadow="2"
     inkscape:pageopacity="0.0"
     inkscape:pagecheckerboard="0"
     inkscape:deskcolor="#d1d1d1"
     inkscape:export-bgcolor="#ffffffff"
     inkscape:zoom="6.3515626"
     inkscape:cx="22.592866"
     inkscape:cy="60.06396"
     inkscape:window-width="1920"
     inkscape:window-height="1016"
     inkscape:window-x="0"
     inkscape:window-y="0"
     inkscape:window-maximized="1"
     inkscape:current-layer="g1" />
  <metadata
     id="metadata219">
    <rdf:RDF>
      <cc:Work
         rdf:about="">
        <dc:format>image/svg+xml</dc:format>
        <dc:type
           rdf:resource="http://purl.org/dc/dcmitype/StillImage" />
      </cc:Work>
    </rdf:RDF>
  </metadata>
  <defs
     id="defs94">
    <clipPath
       clipPathUnits="userSpaceOnUse"
       id="clipPath930">
      <path
         id="path932"
         style="fill:#00a89c;fill-opacity:1;fill-rule:nonzero;stroke:none;stroke-width:0.999997"
         d="m 40.842465,0.60156187 c -12.386709,0 -22.524098,10.13605613 -22.524098,22.52277513 V 171.87568 c 0,12.38673 10.137389,22.52278 22.524098,22.52278 h 5.227715 99.08736 5.22771 c 12.38672,0 22.5241,-10.13605 22.5241,-22.52278 V 23.124337 c 0,-12.386719 -10.13738,-22.52277513 -22.5241,-22.52277513 h -5.22771 -99.08736 z" />
    </clipPath>
    <clipPath
       clipPathUnits="userSpaceOnUse"
       id="clipPath930-3">
      <path
         id="path932-6"
         style="fill:#00a89c;fill-opacity:1;fill-rule:nonzero;stroke:none;stroke-width:0.999997"
         d="m 40.842465,0.60156187 c -12.386709,0 -22.524098,10.13605613 -22.524098,22.52277513 V 171.87568 c 0,12.38673 10.137389,22.52278 22.524098,22.52278 h 5.227715 99.08736 5.22771 c 12.38672,0 22.5241,-10.13605 22.5241,-22.52278 V 23.124337 c 0,-12.386719 -10.13738,-22.52277513 -22.5241,-22.52277513 h -5.22771 -99.08736 z" />
    </clipPath>
  </defs>
  <g
     id="g1"
     transform="translate(-2.4537875,0.1254325)">
    <path
       id="path96"
       d="M 71.057849,79.874567 H 36.674722 c -4.082712,0 -7.423818,-3.34758 -7.423818,-7.438204 V 23.312767 c 0,-4.090622 3.341106,-7.438199 7.423818,-7.438199 h 34.383127 c 4.082717,0 7.423822,3.347577 7.423822,7.438199 v 49.123596 c 0,4.090624 -3.341105,7.438204 -7.423822,7.438204"
       style="fill:#000000;fill-opacity:1;fill-rule:nonzero;stroke:none;stroke-width:1" />
    <path
       id="path98"
       d="M 68.057848,79.874564 H 33.674721 c -4.082712,0 -7.423817,-3.347577 -7.423817,-7.438201 V 23.312767 c 0,-4.090622 3.341105,-7.438199 7.423817,-7.438199 h 34.383127 c 4.082715,0 7.423822,3.347577 7.423822,7.438199 v 49.123596 c 0,4.090624 -3.341108,7.438201 -7.423822,7.438201"
       style="fill:#ffffff;fill-opacity:1;fill-rule:nonzero;stroke:none;stroke-width:1" />
    <g
       id="g2"
       style="display:inline;stroke-width:0.983808"
       transform="matrix(1.0164584,0,0,1.0164584,0.16435435,-0.7879446)">
      <path
         id="path100"
         d="M 62.570849,77.874591 H 30.336643 c -3.827547,0 -6.959835,-3.138358 -6.959835,-6.973321 V 24.847862 c 0,-3.834962 3.132288,-6.973318 6.959835,-6.973318 h 32.234206 c 3.827552,0 6.95984,3.138356 6.95984,6.973318 V 70.90127 c 0,3.834963 -3.132288,6.973321 -6.95984,6.973321"
         style="display:inline;fill:none;fill-opacity:1;fill-rule:nonzero;stroke:#000000;stroke-width:2.95143;stroke-dasharray:none;stroke-opacity:1" />
      <g
         id="g914"
         clip-path="url(#clipPath930)"
         transform="matrix(0.30900423,0,0,0.30960274,17.716357,17.688301)"
         style="stroke-width:3.18073">
        <path
           id="path108"
           d="m 98.11914,138.55078 c -21.97266,0 -39.84766,17.875 -39.84766,39.84766 0,21.97265 17.875,39.84765 39.84766,39.84765 21.97265,0 39.84765,-17.875 39.84765,-39.84765 0,-21.97266 -17.875,-39.84766 -39.84765,-39.84766 m 0,103.69531 c -35.20703,0 -63.84766,-28.64062 -63.84766,-63.84765 0,-35.20704 28.64063,-63.84766 63.84766,-63.84766 35.20703,0 63.84765,28.64062 63.84765,63.84766 0,35.20703 -28.64062,63.84765 -63.84765,63.84765"
           style="clip-rule:nonzero;fill:none;fill-opacity:1;fill-rule:nonzero;stroke:#000000;stroke-width:9.54217;stroke-dasharray:none;stroke-opacity:1" />
        <path
           id="path102"
           d="M 35.719669,98.445466 49.517291,87.939162 63.314913,98.445466 V -26.470032 H 35.719669 Z m 0,0"
           style="clip-rule:nonzero;fill:none;fill-opacity:1;fill-rule:nonzero;stroke:#000000;stroke-width:9.54217;stroke-dasharray:none;stroke-opacity:1" />
        <path
           id="path114"
           d="m 167.68164,98.445466 c -9.70196,0.0184 -19.82399,-0.0368 -23.10779,0 -19.10098,0.23568 -19.52913,-3.15962 -25.67666,-7.633914 -9.3869,-6.827444 -30.806345,-26.241798 -41.308048,-35.113035 -3.578649,-3.027051 -5.606288,-6.54388 -5.606288,-9.836064 v -2.680891 c 0,-4.378549 1.809524,-8.602421 5.065054,-11.824645 l 58.660082,-57.992663 h 35.9239 l -71.884153,70.00511 c 6.135413,6.580703 26.787423,24.886618 53.530413,45.681928 5.61033,4.36381 9.92411,7.659684 14.40349,9.394174"
           style="clip-rule:nonzero;fill:none;fill-opacity:1;fill-rule:nonzero;stroke:#000000;stroke-width:9.54217;stroke-dasharray:none;stroke-opacity:1" />
      </g>
    </g>
  </g>
</svg>
